<svg xmlns="http://www.w3.org/2000/svg" viewBox="0 0 154.26 100.71"><defs><style>.cls-1{fill:none;}.cls-1,.cls-2{stroke:#000;stroke-miterlimit:10;}.cls-2{fill:#fff;}</style></defs><title>clouds</title><g id="moon"><path class="cls-1" d="M100.25,78.23a48.65,48.65,0,0,1-38.3,19"/><path class="cls-1" d="M18.41,70A48.41,48.41,0,0,1,62,.5C81.36.5,98.1,12.4,105.81,28.89"/></g><g id="cloud-b"><path class="cls-2" d="M12.47,78.23s9-8.44,14.67-8.21c0,0,9.33-14.77,22.67-16.43s16.67,6,16.67,6,6.33,1.33,7.67,4.67,13.33,2,15,7.33-2.06,12-8,11.33c0,0-3.64,5-16,4.83,0,0-14.67,9.21-23.33,9.52,0,0-10,5.31-19,1.64,0,0-20.67,3.33-21.67-4.33C1.13,94.59-3.53,82.54,12.47,78.23Z"/><g id="cloud-a"><path class="cls-2" d="M76.7,54.8s9-8.44,14.67-8.21c0,0,9.33-14.77,22.67-16.43s16.67,6,16.67,6,6.33,1.33,7.67,4.67,13.33,2,15,7.33-2.06,12-8,11.33c0,0-3.64,5-16,4.83,0,0-14.67,9.21-23.33,9.52,0,0-10,5.31-19,1.64,0,0-20.67,3.33-21.67-4.33C65.36,71.16,60.7,59.11,76.7,54.8Z"/></g></g></svg>