<svg id="Layer_1" data-name="Layer 1" xmlns="http://www.w3.org/2000/svg" viewBox="0 0 109.72 98.75"><defs><style>.cls-1,.cls-2{fill:none;}.cls-1{stroke:#000;stroke-miterlimit:10;}</style></defs><title>Artboard 1</title><path class="cls-1" d="M103.42,33.93a25.12,25.12,0,1,0,5.08,33.72"/><path class="cls-1" d="M83.49,74.43A23.83,23.83,0,0,0,103.23,64"/><path class="cls-1" d="M83.49,26.72A23.83,23.83,0,0,0,59.64,50.57"/><polyline class="cls-1" points="64.91 64.65 45.17 74.7 45.17 74.7 29.9 26.29"/><polyline class="cls-1" points="54.85 57.2 42.57 21.07 29.9 26.29 8.3 79.54"/><polyline class="cls-1" points="33.26 53.1 27.67 67.63 10.16 74.7"/><path class="cls-1" d="M88.79,78.64a48.65,48.65,0,0,1-38.3,19"/><path class="cls-1" d="M6.95,70.43A48.41,48.41,0,0,1,50.49.91c19.41,0,36.14,11.9,43.86,28.39"/><rect class="cls-2" width="109.72" height="98.75"/><rect class="cls-2" width="109.72" height="98.75"/></svg>